<svg xmlns="http://www.w3.org/2000/svg" height="512pt" version="1.1" viewBox="0 0 512 512.00077" width="512pt">
<g id="surface1">
<path d="M 0 17.066406 L 0 494.933594 C 0 504.359375 7.640625 512 17.066406 512 L 256 512 L 256 0 L 17.066406 0 C 7.640625 0 0 7.640625 0 17.066406 Z M 0 17.066406 " style=" stroke:none;fill-rule:nonzero;fill:rgb(90.196078%,90.588235%,90.980392%);fill-opacity:1;" />
<path d="M 494.933594 0 L 256 0 L 256 512 L 494.933594 512 C 504.359375 512 512 504.359375 512 494.933594 L 512 17.066406 C 512 7.640625 504.359375 0 494.933594 0 Z M 494.933594 0 " style=" stroke:none;fill-rule:nonzero;fill:rgb(96.078431%,96.078431%,96.470588%);fill-opacity:1;" />
<path d="M 437.460938 424.472656 L 268.066406 256 L 436.574219 86.5625 C 439.898438 83.21875 439.886719 77.816406 436.546875 74.492188 C 433.203125 71.167969 427.800781 71.179688 424.472656 74.519531 L 256 243.933594 L 86.578125 75.425781 C 83.238281 72.101562 77.832031 72.113281 74.507812 75.457031 C 71.183594 78.796875 71.195312 84.203125 74.539062 87.527344 L 243.933594 256 L 75.441406 425.421875 C 72.117188 428.761719 72.132812 434.167969 75.472656 437.492188 C 78.8125 440.816406 84.21875 440.804688 87.542969 437.460938 L 256 268.066406 L 425.386719 436.574219 C 428.726562 439.898438 434.132812 439.886719 437.457031 436.542969 C 440.78125 433.203125 440.769531 427.800781 437.429688 424.472656 Z M 437.460938 424.472656 " style=" stroke:none;fill-rule:nonzero;fill:rgb(50.196078%,50.980392%,52.156863%);fill-opacity:1;" />
</g>
</svg>